{
	"asset":{
		"generator":"Khronos glTF Blender I/O v4.1.63",
		"version":"2.0"
	},
	"extensionsUsed":[
		"KHR_materials_specular",
		"KHR_materials_ior"
	],
	"scene":0,
	"scenes":[
		{
			"name":"Scene",
			"nodes":[
				1
			]
		}
	],
	"nodes":[
		{
			"mesh":0,
			"name":"snehuliak",
			"rotation":[
				0,
				-0.024771055206656456,
				0,
				0.9996931552886963
			],
			"translation":[
				0.024563491344451904,
				1.250226378440857,
				-0.3879406154155731
			]
		},
		{
			"children":[
				0
			],
			"name":"snehulak",
			"rotation":[
				-0.06392677873373032,
				0.4965001046657562,
				-0.03574729338288307,
				0.8649411201477051
			],
			"scale":[
				0.15000000596046448,
				0.15000000596046448,
				0.15000002086162567
			],
			"translation":[
				9.79311752319336,
				0.7110191583633423,
				1.138695478439331
			]
		}
	],
	"animations":[
		{
			"channels":[
				{
					"sampler":0,
					"target":{
						"node":1,
						"path":"translation"
					}
				},
				{
					"sampler":1,
					"target":{
						"node":1,
						"path":"rotation"
					}
				}
			],
			"name":"snehulakAction",
			"samplers":[
				{
					"input":24,
					"interpolation":"LINEAR",
					"output":25
				},
				{
					"input":24,
					"interpolation":"LINEAR",
					"output":26
				}
			]
		}
	],
	"materials":[
		{
			"doubleSided":true,
			"name":"nose-mat",
			"pbrMetallicRoughness":{
				"baseColorFactor":[
					0.8000000715255737,
					0.10462407767772675,
					0.0010048800613731146,
					1
				],
				"metallicFactor":0,
				"roughnessFactor":0.5
			}
		},
		{
			"doubleSided":true,
			"name":"body-mat",
			"pbrMetallicRoughness":{}
		},
		{
			"doubleSided":true,
			"name":"buttons-eyes-mat",
			"pbrMetallicRoughness":{}
		},
		{
			"doubleSided":true,
			"name":"cap-wh",
			"pbrMetallicRoughness":{}
		},
		{
			"doubleSided":true,
			"name":"cap-rd",
			"pbrMetallicRoughness":{}
		},
		{
			"doubleSided":true,
			"extensions":{
				"KHR_materials_specular":{
					"specularColorFactor":[
						2.0,
						2.0,
						2.0
					]
				},
				"KHR_materials_ior":{
					"ior":1.4500000476837158
				}
			},
			"name":"tree-base-mat",
			"pbrMetallicRoughness":{
				"baseColorFactor":[
					0.15743385255336761,
					0.07696685194969177,
					0.0195287074893713,
					1
				],
				"metallicFactor":0,
				"roughnessFactor":0.6800000071525574
			}
		}
	],
	"meshes":[
		{
			"name":"snehuliak",
			"primitives":[
				{
					"attributes":{
						"POSITION":0,
						"NORMAL":1,
						"TEXCOORD_0":2
					},
					"indices":3,
					"material":0
				},
				{
					"attributes":{
						"POSITION":4,
						"NORMAL":5,
						"TEXCOORD_0":6
					},
					"indices":7,
					"material":1
				},
				{
					"attributes":{
						"POSITION":8,
						"NORMAL":9,
						"TEXCOORD_0":10
					},
					"indices":11,
					"material":2
				},
				{
					"attributes":{
						"POSITION":12,
						"NORMAL":13,
						"TEXCOORD_0":14
					},
					"indices":15,
					"material":3
				},
				{
					"attributes":{
						"POSITION":16,
						"NORMAL":17,
						"TEXCOORD_0":18
					},
					"indices":19,
					"material":4
				},
				{
					"attributes":{
						"POSITION":20,
						"NORMAL":21,
						"TEXCOORD_0":22
					},
					"indices":23,
					"material":5
				}
			]
		}
	],
	"accessors":[
		{
			"bufferView":0,
			"componentType":5126,
			"count":89,
			"max":[
				0.05257561430335045,
				0.05346620827913284,
				0.04363862797617912
			],
			"min":[
				-0.05257561430335045,
				-0.05257561057806015,
				-0.20716720819473267
			],
			"type":"VEC3"
		},
		{
			"bufferView":1,
			"componentType":5126,
			"count":89,
			"type":"VEC3"
		},
		{
			"bufferView":2,
			"componentType":5126,
			"count":89,
			"type":"VEC2"
		},
		{
			"bufferView":3,
			"componentType":5123,
			"count":144,
			"type":"SCALAR"
		},
		{
			"bufferView":4,
			"componentType":5126,
			"count":192,
			"max":[
				0.5282489061355591,
				0.4142765998840332,
				0.8906542062759399
			],
			"min":[
				-0.4333670735359192,
				-1.2256473302841187,
				-0.07463341951370239
			],
			"type":"VEC3"
		},
		{
			"bufferView":5,
			"componentType":5126,
			"count":192,
			"type":"VEC3"
		},
		{
			"bufferView":6,
			"componentType":5126,
			"count":192,
			"type":"VEC2"
		},
		{
			"bufferView":7,
			"componentType":5123,
			"count":288,
			"type":"SCALAR"
		},
		{
			"bufferView":8,
			"componentType":5126,
			"count":96,
			"max":[
				0.17165440320968628,
				0.14090532064437866,
				0.07730230689048767
			],
			"min":[
				-0.17765440046787262,
				-0.7158075571060181,
				-0.11692741513252258
			],
			"type":"VEC3"
		},
		{
			"bufferView":9,
			"componentType":5126,
			"count":96,
			"type":"VEC3"
		},
		{
			"bufferView":10,
			"componentType":5126,
			"count":96,
			"type":"VEC2"
		},
		{
			"bufferView":11,
			"componentType":5123,
			"count":144,
			"type":"SCALAR"
		},
		{
			"bufferView":12,
			"componentType":5126,
			"count":280,
			"max":[
				0.42515870928764343,
				0.5897927284240723,
				0.9310239553451538
			],
			"min":[
				-0.6460893154144287,
				-0.0654832124710083,
				0.0687515139579773
			],
			"type":"VEC3"
		},
		{
			"bufferView":13,
			"componentType":5126,
			"count":280,
			"type":"VEC3"
		},
		{
			"bufferView":14,
			"componentType":5126,
			"count":280,
			"type":"VEC2"
		},
		{
			"bufferView":15,
			"componentType":5123,
			"count":408,
			"type":"SCALAR"
		},
		{
			"bufferView":16,
			"componentType":5126,
			"count":769,
			"max":[
				0.8667837977409363,
				0.8156253695487976,
				1.001354694366455
			],
			"min":[
				-0.7749141454696655,
				-1.2502273321151733,
				-0.23074615001678467
			],
			"type":"VEC3"
		},
		{
			"bufferView":17,
			"componentType":5126,
			"count":769,
			"type":"VEC3"
		},
		{
			"bufferView":18,
			"componentType":5126,
			"count":769,
			"type":"VEC2"
		},
		{
			"bufferView":19,
			"componentType":5123,
			"count":1272,
			"type":"SCALAR"
		},
		{
			"bufferView":20,
			"componentType":5126,
			"count":144,
			"max":[
				0.6905454397201538,
				-0.21590012311935425,
				0.4909117519855499
			],
			"min":[
				-0.598675012588501,
				-0.5128823518753052,
				0.4391801357269287
			],
			"type":"VEC3"
		},
		{
			"bufferView":21,
			"componentType":5126,
			"count":144,
			"type":"VEC3"
		},
		{
			"bufferView":22,
			"componentType":5126,
			"count":144,
			"type":"VEC2"
		},
		{
			"bufferView":23,
			"componentType":5123,
			"count":264,
			"type":"SCALAR"
		},
		{
			"bufferView":24,
			"componentType":5126,
			"count":111,
			"max":[
				4.583333333333333
			],
			"min":[
				0
			],
			"type":"SCALAR"
		},
		{
			"bufferView":25,
			"componentType":5126,
			"count":111,
			"type":"VEC3"
		},
		{
			"bufferView":26,
			"componentType":5126,
			"count":111,
			"type":"VEC4"
		}
	],
	"bufferViews":[
		{
			"buffer":0,
			"byteLength":1068,
			"byteOffset":0,
			"target":34962
		},
		{
			"buffer":0,
			"byteLength":1068,
			"byteOffset":1068,
			"target":34962
		},
		{
			"buffer":0,
			"byteLength":712,
			"byteOffset":2136,
			"target":34962
		},
		{
			"buffer":0,
			"byteLength":288,
			"byteOffset":2848,
			"target":34963
		},
		{
			"buffer":0,
			"byteLength":2304,
			"byteOffset":3136,
			"target":34962
		},
		{
			"buffer":0,
			"byteLength":2304,
			"byteOffset":5440,
			"target":34962
		},
		{
			"buffer":0,
			"byteLength":1536,
			"byteOffset":7744,
			"target":34962
		},
		{
			"buffer":0,
			"byteLength":576,
			"byteOffset":9280,
			"target":34963
		},
		{
			"buffer":0,
			"byteLength":1152,
			"byteOffset":9856,
			"target":34962
		},
		{
			"buffer":0,
			"byteLength":1152,
			"byteOffset":11008,
			"target":34962
		},
		{
			"buffer":0,
			"byteLength":768,
			"byteOffset":12160,
			"target":34962
		},
		{
			"buffer":0,
			"byteLength":288,
			"byteOffset":12928,
			"target":34963
		},
		{
			"buffer":0,
			"byteLength":3360,
			"byteOffset":13216,
			"target":34962
		},
		{
			"buffer":0,
			"byteLength":3360,
			"byteOffset":16576,
			"target":34962
		},
		{
			"buffer":0,
			"byteLength":2240,
			"byteOffset":19936,
			"target":34962
		},
		{
			"buffer":0,
			"byteLength":816,
			"byteOffset":22176,
			"target":34963
		},
		{
			"buffer":0,
			"byteLength":9228,
			"byteOffset":22992,
			"target":34962
		},
		{
			"buffer":0,
			"byteLength":9228,
			"byteOffset":32220,
			"target":34962
		},
		{
			"buffer":0,
			"byteLength":6152,
			"byteOffset":41448,
			"target":34962
		},
		{
			"buffer":0,
			"byteLength":2544,
			"byteOffset":47600,
			"target":34963
		},
		{
			"buffer":0,
			"byteLength":1728,
			"byteOffset":50144,
			"target":34962
		},
		{
			"buffer":0,
			"byteLength":1728,
			"byteOffset":51872,
			"target":34962
		},
		{
			"buffer":0,
			"byteLength":1152,
			"byteOffset":53600,
			"target":34962
		},
		{
			"buffer":0,
			"byteLength":528,
			"byteOffset":54752,
			"target":34963
		},
		{
			"buffer":0,
			"byteLength":444,
			"byteOffset":55280
		},
		{
			"buffer":0,
			"byteLength":1332,
			"byteOffset":55724
		},
		{
			"buffer":0,
			"byteLength":1776,
			"byteOffset":57056
		}
	],
	"buffers":[
		{
			"byteLength":58832,
			"uri":"snehuliak.bin"
		}
	]
}
