{
	"asset":{
		"generator":"Khronos glTF Blender I/O v4.1.63",
		"version":"2.0"
	},
	"scene":0,
	"scenes":[
		{
			"name":"Scene",
			"nodes":[
				0
			]
		}
	],
	"nodes":[
		{
			"mesh":0,
			"name":"HILL",
			"scale":[
				4.999999523162842,
				1,
				1.999999761581421
			],
			"translation":[
				5,
				0,
				0
			]
		}
	],
	"materials":[
		{
			"doubleSided":true,
			"name":"snow",
			"pbrMetallicRoughness":{
				"baseColorFactor":[
					0.37711602449417114,
					0.37711602449417114,
					0.37711602449417114,
					1
				],
				"metallicFactor":0,
				"roughnessFactor":0.5
			}
		}
	],
	"meshes":[
		{
			"name":"Plane",
			"primitives":[
				{
					"attributes":{
						"POSITION":0,
						"NORMAL":1,
						"TEXCOORD_0":2
					},
					"indices":3,
					"material":0
				}
			]
		}
	],
	"accessors":[
		{
			"bufferView":0,
			"componentType":5126,
			"count":15411,
			"max":[
				1.0000001192092896,
				0.8169939517974854,
				1.0000001192092896
			],
			"min":[
				-1.0000001192092896,
				-0.9058823585510254,
				-1.0000001192092896
			],
			"type":"VEC3"
		},
		{
			"bufferView":1,
			"componentType":5126,
			"count":15411,
			"type":"VEC3"
		},
		{
			"bufferView":2,
			"componentType":5126,
			"count":15411,
			"type":"VEC2"
		},
		{
			"bufferView":3,
			"componentType":5123,
			"count":24576,
			"type":"SCALAR"
		}
	],
	"bufferViews":[
		{
			"buffer":0,
			"byteLength":184932,
			"byteOffset":0,
			"target":34962
		},
		{
			"buffer":0,
			"byteLength":184932,
			"byteOffset":184932,
			"target":34962
		},
		{
			"buffer":0,
			"byteLength":123288,
			"byteOffset":369864,
			"target":34962
		},
		{
			"buffer":0,
			"byteLength":49152,
			"byteOffset":493152,
			"target":34963
		}
	],
	"buffers":[
		{
			"byteLength":542304,
			"uri":"hill.bin"
		}
	]
}
