{
	"asset":{
		"generator":"Khronos glTF Blender I/O v4.1.63",
		"version":"2.0"
	},
	"extensionsUsed":[
		"KHR_materials_specular",
		"KHR_materials_ior"
	],
	"scene":0,
	"scenes":[
		{
			"name":"Scene",
			"nodes":[
				1
			]
		}
	],
	"nodes":[
		{
			"mesh":0,
			"name":"tree-green",
			"translation":[
				0.1301424503326416,
				1.8613026142120361,
				0.016983509063720703
			]
		},
		{
			"children":[
				0
			],
			"name":"tree",
			"rotation":[
				0,
				0,
				0.06506023555994034,
				0.9978814125061035
			],
			"scale":[
				0.20000000298023224,
				0.20000000298023224,
				0.20000000298023224
			],
			"translation":[
				8.23983383178711,
				0.7156181931495667,
				1.4682053327560425
			]
		}
	],
	"materials":[
		{
			"doubleSided":true,
			"name":"tree-green-mat",
			"pbrMetallicRoughness":{}
		},
		{
			"doubleSided":true,
			"extensions":{
				"KHR_materials_specular":{
					"specularColorFactor":[
						2.0,
						2.0,
						2.0
					]
				},
				"KHR_materials_ior":{
					"ior":1.4500000476837158
				}
			},
			"name":"tree-base-mat",
			"pbrMetallicRoughness":{
				"baseColorFactor":[
					0.15743385255336761,
					0.07696685194969177,
					0.0195287074893713,
					1
				],
				"metallicFactor":0,
				"roughnessFactor":0.6800000071525574
			}
		},
		{
			"doubleSided":true,
			"name":"tree-green-mat.001",
			"pbrMetallicRoughness":{}
		},
		{
			"doubleSided":true,
			"extensions":{
				"KHR_materials_specular":{
					"specularColorFactor":[
						2.0,
						2.0,
						2.0
					]
				},
				"KHR_materials_ior":{
					"ior":1.4500000476837158
				}
			},
			"name":"tree-base-mat.001",
			"pbrMetallicRoughness":{
				"baseColorFactor":[
					0.15743385255336761,
					0.07696685194969177,
					0.0195287074893713,
					1
				],
				"metallicFactor":0,
				"roughnessFactor":0.6800000071525574
			}
		},
		{
			"doubleSided":true,
			"name":"tree-green-mat.002",
			"pbrMetallicRoughness":{}
		},
		{
			"doubleSided":true,
			"extensions":{
				"KHR_materials_specular":{
					"specularColorFactor":[
						2.0,
						2.0,
						2.0
					]
				},
				"KHR_materials_ior":{
					"ior":1.4500000476837158
				}
			},
			"name":"tree-base-mat.002",
			"pbrMetallicRoughness":{
				"baseColorFactor":[
					0.15743385255336761,
					0.07696685194969177,
					0.0195287074893713,
					1
				],
				"metallicFactor":0,
				"roughnessFactor":0.6800000071525574
			}
		}
	],
	"meshes":[
		{
			"name":"tree-green",
			"primitives":[
				{
					"attributes":{
						"POSITION":0,
						"NORMAL":1,
						"TEXCOORD_0":2
					},
					"indices":3,
					"material":0
				},
				{
					"attributes":{
						"POSITION":4,
						"NORMAL":5,
						"TEXCOORD_0":6
					},
					"indices":7,
					"material":1
				},
				{
					"attributes":{
						"POSITION":8,
						"NORMAL":9,
						"TEXCOORD_0":10
					},
					"indices":3,
					"material":2
				},
				{
					"attributes":{
						"POSITION":11,
						"NORMAL":12,
						"TEXCOORD_0":13
					},
					"indices":14,
					"material":3
				},
				{
					"attributes":{
						"POSITION":15,
						"NORMAL":16,
						"TEXCOORD_0":17
					},
					"indices":3,
					"material":4
				},
				{
					"attributes":{
						"POSITION":18,
						"NORMAL":19,
						"TEXCOORD_0":20
					},
					"indices":7,
					"material":5
				}
			]
		}
	],
	"accessors":[
		{
			"bufferView":0,
			"componentType":5126,
			"count":96,
			"max":[
				1.0767712593078613,
				0.49349650740623474,
				1.2118165493011475
			],
			"min":[
				-1.339920997619629,
				-1.435948371887207,
				-1.2118167877197266
			],
			"type":"VEC3"
		},
		{
			"bufferView":1,
			"componentType":5126,
			"count":96,
			"type":"VEC3"
		},
		{
			"bufferView":2,
			"componentType":5126,
			"count":96,
			"type":"VEC2"
		},
		{
			"bufferView":3,
			"componentType":5123,
			"count":144,
			"type":"SCALAR"
		},
		{
			"bufferView":4,
			"componentType":5126,
			"count":56,
			"max":[
				0.09385713934898376,
				-0.8889763355255127,
				0.2489895224571228
			],
			"min":[
				-0.4026954770088196,
				-1.866758108139038,
				-0.2489892840385437
			],
			"type":"VEC3"
		},
		{
			"bufferView":5,
			"componentType":5126,
			"count":56,
			"type":"VEC3"
		},
		{
			"bufferView":6,
			"componentType":5126,
			"count":56,
			"type":"VEC2"
		},
		{
			"bufferView":7,
			"componentType":5123,
			"count":84,
			"type":"SCALAR"
		},
		{
			"bufferView":8,
			"componentType":5126,
			"count":96,
			"max":[
				-8.575191497802734,
				-0.5964990854263306,
				-11.579407691955566
			],
			"min":[
				-10.991883277893066,
				-2.5259439945220947,
				-14.00304126739502
			],
			"type":"VEC3"
		},
		{
			"bufferView":9,
			"componentType":5126,
			"count":96,
			"type":"VEC3"
		},
		{
			"bufferView":10,
			"componentType":5126,
			"count":96,
			"type":"VEC2"
		},
		{
			"bufferView":11,
			"componentType":5126,
			"count":58,
			"max":[
				-9.558109283447266,
				-1.9789719581604004,
				-12.542235374450684
			],
			"min":[
				-10.054661750793457,
				-2.956753730773926,
				-13.040214538574219
			],
			"type":"VEC3"
		},
		{
			"bufferView":12,
			"componentType":5126,
			"count":58,
			"type":"VEC3"
		},
		{
			"bufferView":13,
			"componentType":5126,
			"count":58,
			"type":"VEC2"
		},
		{
			"bufferView":14,
			"componentType":5123,
			"count":84,
			"type":"SCALAR"
		},
		{
			"bufferView":15,
			"componentType":5126,
			"count":96,
			"max":[
				-21.03864097595215,
				-2.0166544914245605,
				-4.289554595947266
			],
			"min":[
				-23.455333709716797,
				-3.946099281311035,
				-6.713188171386719
			],
			"type":"VEC3"
		},
		{
			"bufferView":16,
			"componentType":5126,
			"count":96,
			"type":"VEC3"
		},
		{
			"bufferView":17,
			"componentType":5126,
			"count":96,
			"type":"VEC2"
		},
		{
			"bufferView":18,
			"componentType":5126,
			"count":56,
			"max":[
				-22.021554946899414,
				-3.399127244949341,
				-5.252382278442383
			],
			"min":[
				-22.51810646057129,
				-4.376909255981445,
				-5.75036096572876
			],
			"type":"VEC3"
		},
		{
			"bufferView":19,
			"componentType":5126,
			"count":56,
			"type":"VEC3"
		},
		{
			"bufferView":20,
			"componentType":5126,
			"count":56,
			"type":"VEC2"
		}
	],
	"bufferViews":[
		{
			"buffer":0,
			"byteLength":1152,
			"byteOffset":0,
			"target":34962
		},
		{
			"buffer":0,
			"byteLength":1152,
			"byteOffset":1152,
			"target":34962
		},
		{
			"buffer":0,
			"byteLength":768,
			"byteOffset":2304,
			"target":34962
		},
		{
			"buffer":0,
			"byteLength":288,
			"byteOffset":3072,
			"target":34963
		},
		{
			"buffer":0,
			"byteLength":672,
			"byteOffset":3360,
			"target":34962
		},
		{
			"buffer":0,
			"byteLength":672,
			"byteOffset":4032,
			"target":34962
		},
		{
			"buffer":0,
			"byteLength":448,
			"byteOffset":4704,
			"target":34962
		},
		{
			"buffer":0,
			"byteLength":168,
			"byteOffset":5152,
			"target":34963
		},
		{
			"buffer":0,
			"byteLength":1152,
			"byteOffset":5320,
			"target":34962
		},
		{
			"buffer":0,
			"byteLength":1152,
			"byteOffset":6472,
			"target":34962
		},
		{
			"buffer":0,
			"byteLength":768,
			"byteOffset":7624,
			"target":34962
		},
		{
			"buffer":0,
			"byteLength":696,
			"byteOffset":8392,
			"target":34962
		},
		{
			"buffer":0,
			"byteLength":696,
			"byteOffset":9088,
			"target":34962
		},
		{
			"buffer":0,
			"byteLength":464,
			"byteOffset":9784,
			"target":34962
		},
		{
			"buffer":0,
			"byteLength":168,
			"byteOffset":10248,
			"target":34963
		},
		{
			"buffer":0,
			"byteLength":1152,
			"byteOffset":10416,
			"target":34962
		},
		{
			"buffer":0,
			"byteLength":1152,
			"byteOffset":11568,
			"target":34962
		},
		{
			"buffer":0,
			"byteLength":768,
			"byteOffset":12720,
			"target":34962
		},
		{
			"buffer":0,
			"byteLength":672,
			"byteOffset":13488,
			"target":34962
		},
		{
			"buffer":0,
			"byteLength":672,
			"byteOffset":14160,
			"target":34962
		},
		{
			"buffer":0,
			"byteLength":448,
			"byteOffset":14832,
			"target":34962
		}
	],
	"buffers":[
		{
			"byteLength":15280,
			"uri":"trees.bin"
		}
	]
}
