{
	"asset":{
		"generator":"Khronos glTF Blender I/O v4.1.63",
		"version":"2.0"
	},
	"scene":0,
	"scenes":[
		{
			"name":"Scene",
			"nodes":[
				0
			]
		}
	],
	"nodes":[
		{
			"mesh":0,
			"name":"Cube",
			"scale":[
				0.5,
				0.5,
				0.5
			]
		}
	],
	"animations":[
		{
			"channels":[
				{
					"sampler":0,
					"target":{
						"node":0,
						"path":"translation"
					}
				}
			],
			"name":"Animation",
			"samplers":[
				{
					"input":16,
					"interpolation":"LINEAR",
					"output":17
				}
			]
		}
	],
	"materials":[
		{
			"doubleSided":true,
			"name":"front",
			"pbrMetallicRoughness":{
				"baseColorFactor":[
					0.0026827810797840357,
					0.7953643798828125,
					0,
					1
				],
				"metallicFactor":0,
				"roughnessFactor":0.4000000059604645
			}
		},
		{
			"doubleSided":true,
			"name":"top",
			"pbrMetallicRoughness":{
				"baseColorFactor":[
					0.7942695021629333,
					0.001925678108818829,
					0,
					1
				],
				"metallicFactor":0,
				"roughnessFactor":0.5
			}
		},
		{
			"doubleSided":true,
			"name":"sides",
			"pbrMetallicRoughness":{
				"baseColorFactor":[
					0.002247902099043131,
					0,
					0.7954687476158142,
					1
				],
				"metallicFactor":0,
				"roughnessFactor":0.5
			}
		},
		{
			"doubleSided":true,
			"name":"negative",
			"pbrMetallicRoughness":{
				"baseColorFactor":[
					0.800000011920929,
					0.800000011920929,
					0.800000011920929,
					1
				],
				"metallicFactor":0,
				"roughnessFactor":0.5
			}
		}
	],
	"meshes":[
		{
			"name":"Cube",
			"primitives":[
				{
					"attributes":{
						"POSITION":0,
						"NORMAL":1,
						"TEXCOORD_0":2
					},
					"indices":3,
					"material":0
				},
				{
					"attributes":{
						"POSITION":4,
						"NORMAL":5,
						"TEXCOORD_0":6
					},
					"indices":7,
					"material":1
				},
				{
					"attributes":{
						"POSITION":8,
						"NORMAL":9,
						"TEXCOORD_0":10
					},
					"indices":11,
					"material":2
				},
				{
					"attributes":{
						"POSITION":12,
						"NORMAL":13,
						"TEXCOORD_0":14
					},
					"indices":15,
					"material":3
				}
			]
		}
	],
	"accessors":[
		{
			"bufferView":0,
			"componentType":5126,
			"count":4,
			"max":[
				1,
				1,
				1
			],
			"min":[
				1,
				-1,
				-1
			],
			"type":"VEC3"
		},
		{
			"bufferView":1,
			"componentType":5126,
			"count":4,
			"type":"VEC3"
		},
		{
			"bufferView":2,
			"componentType":5126,
			"count":4,
			"type":"VEC2"
		},
		{
			"bufferView":3,
			"componentType":5123,
			"count":6,
			"type":"SCALAR"
		},
		{
			"bufferView":4,
			"componentType":5126,
			"count":4,
			"max":[
				1,
				1,
				1
			],
			"min":[
				-1,
				1,
				-1
			],
			"type":"VEC3"
		},
		{
			"bufferView":5,
			"componentType":5126,
			"count":4,
			"type":"VEC3"
		},
		{
			"bufferView":6,
			"componentType":5126,
			"count":4,
			"type":"VEC2"
		},
		{
			"bufferView":7,
			"componentType":5123,
			"count":6,
			"type":"SCALAR"
		},
		{
			"bufferView":8,
			"componentType":5126,
			"count":4,
			"max":[
				1,
				1,
				-1
			],
			"min":[
				-1,
				-1,
				-1
			],
			"type":"VEC3"
		},
		{
			"bufferView":9,
			"componentType":5126,
			"count":4,
			"type":"VEC3"
		},
		{
			"bufferView":10,
			"componentType":5126,
			"count":4,
			"type":"VEC2"
		},
		{
			"bufferView":11,
			"componentType":5123,
			"count":6,
			"type":"SCALAR"
		},
		{
			"bufferView":12,
			"componentType":5126,
			"count":12,
			"max":[
				1,
				1,
				1
			],
			"min":[
				-1,
				-1,
				-1
			],
			"type":"VEC3"
		},
		{
			"bufferView":13,
			"componentType":5126,
			"count":12,
			"type":"VEC3"
		},
		{
			"bufferView":14,
			"componentType":5126,
			"count":12,
			"type":"VEC2"
		},
		{
			"bufferView":15,
			"componentType":5123,
			"count":18,
			"type":"SCALAR"
		},
		{
			"bufferView":16,
			"componentType":5126,
			"count":100,
			"max":[
				4.166666666666667
			],
			"min":[
				0.041666666666666664
			],
			"type":"SCALAR"
		},
		{
			"bufferView":17,
			"componentType":5126,
			"count":100,
			"type":"VEC3"
		}
	],
	"bufferViews":[
		{
			"buffer":0,
			"byteLength":48,
			"byteOffset":0,
			"target":34962
		},
		{
			"buffer":0,
			"byteLength":48,
			"byteOffset":48,
			"target":34962
		},
		{
			"buffer":0,
			"byteLength":32,
			"byteOffset":96,
			"target":34962
		},
		{
			"buffer":0,
			"byteLength":12,
			"byteOffset":128,
			"target":34963
		},
		{
			"buffer":0,
			"byteLength":48,
			"byteOffset":140,
			"target":34962
		},
		{
			"buffer":0,
			"byteLength":48,
			"byteOffset":188,
			"target":34962
		},
		{
			"buffer":0,
			"byteLength":32,
			"byteOffset":236,
			"target":34962
		},
		{
			"buffer":0,
			"byteLength":12,
			"byteOffset":268,
			"target":34963
		},
		{
			"buffer":0,
			"byteLength":48,
			"byteOffset":280,
			"target":34962
		},
		{
			"buffer":0,
			"byteLength":48,
			"byteOffset":328,
			"target":34962
		},
		{
			"buffer":0,
			"byteLength":32,
			"byteOffset":376,
			"target":34962
		},
		{
			"buffer":0,
			"byteLength":12,
			"byteOffset":408,
			"target":34963
		},
		{
			"buffer":0,
			"byteLength":144,
			"byteOffset":420,
			"target":34962
		},
		{
			"buffer":0,
			"byteLength":144,
			"byteOffset":564,
			"target":34962
		},
		{
			"buffer":0,
			"byteLength":96,
			"byteOffset":708,
			"target":34962
		},
		{
			"buffer":0,
			"byteLength":36,
			"byteOffset":804,
			"target":34963
		},
		{
			"buffer":0,
			"byteLength":400,
			"byteOffset":840
		},
		{
			"buffer":0,
			"byteLength":1200,
			"byteOffset":1240
		}
	],
	"buffers":[
		{
			"byteLength":2440,
			"uri":"cube.bin"
		}
	]
}
